<svg xmlns="http://www.w3.org/2000/svg" width="1600" height="900" viewBox="0 0 1600 900" role="img">
<rect width="1600" height="900" fill="#F7FAFC"/>
<text x="800" y="70" font-family="Inter, 'Noto Sans SC', 'Microsoft YaHei', Arial, sans-serif" font-size="50" font-weight="800" fill="#0B1F4D" text-anchor="middle">Material Statistics &amp; Numerical Robustness / 材料统计与数值稳健性</text><text x="800" y="112" font-family="Inter, 'Noto Sans SC', 'Microsoft YaHei', Arial, sans-serif" font-size="24" font-weight="500" fill="#465A73" text-anchor="middle">Correlation · Regression · Quantiles · Bounds · Performance / 相关性 · 回归 · 分位数 · 轴界限 · 性能</text><line x1="210" y1="132" x2="1390" y2="132" stroke="#D7E2F0" stroke-width="2"/><rect x="30" y="165" width="340" height="525" rx="24" fill="#FFFFFF" stroke="#0B1F4D" stroke-width="3"/><path d="M54,165 H346 Q370,165 370,189 V253 H30 V189 Q30,165 54,165 Z" fill="#0B1F4D"/><circle cx="78" cy="209" r="25" fill="#FFFFFF" stroke="none" stroke-width="0"/><text x="78" y="218" font-family="Inter, 'Noto Sans SC', 'Microsoft YaHei', Arial, sans-serif" font-size="24" font-weight="800" fill="#0B1F4D" text-anchor="middle">1</text><text x="118" y="202" font-family="Inter, 'Noto Sans SC', 'Microsoft YaHei', Arial, sans-serif" font-size="22" font-weight="700" fill="#FFFFFF" text-anchor="start">统计核心</text><text x="118" y="232" font-family="Inter, 'Noto Sans SC', 'Microsoft YaHei', Arial, sans-serif" font-size="20" font-weight="700" fill="#FFFFFF" text-anchor="start">Statistical Core</text><line x1="53" y1="335" x2="53" y2="275" stroke="#0B1F4D" stroke-width="3"/><line x1="53" y1="335" x2="120" y2="335" stroke="#0B1F4D" stroke-width="3"/><polyline points="63,323 78,308 93,313 113,285" fill="none" stroke="#0B1F4D" stroke-width="4"/><circle cx="63" cy="323" r="5" fill="#0B1F4D" stroke="none" stroke-width="0"/><circle cx="78" cy="308" r="5" fill="#0B1F4D" stroke="none" stroke-width="0"/><circle cx="93" cy="313" r="5" fill="#0B1F4D" stroke="none" stroke-width="0"/><circle cx="113" cy="285" r="5" fill="#0B1F4D" stroke="none" stroke-width="0"/><text x="135" y="297" font-family="Inter, 'Noto Sans SC', 'Microsoft YaHei', Arial, sans-serif" font-size="20" font-weight="600" fill="#0B1F4D" text-anchor="start">Pearson correlation</text><text x="135" y="325" font-family="Inter, 'Noto Sans SC', 'Microsoft YaHei', Arial, sans-serif" font-size="18" font-weight="500" fill="#465A73" text-anchor="start">皮尔逊相关</text><line x1="52" y1="343" x2="348" y2="343" stroke="#D7E2F0" stroke-width="1"/><line x1="53" y1="409" x2="53" y2="349" stroke="#0B1F4D" stroke-width="3"/><line x1="53" y1="409" x2="120" y2="409" stroke="#0B1F4D" stroke-width="3"/><polyline points="63,397 78,382 93,387 113,359" fill="none" stroke="#0B1F4D" stroke-width="4"/><circle cx="63" cy="397" r="5" fill="#0B1F4D" stroke="none" stroke-width="0"/><circle cx="78" cy="382" r="5" fill="#0B1F4D" stroke="none" stroke-width="0"/><circle cx="93" cy="387" r="5" fill="#0B1F4D" stroke="none" stroke-width="0"/><circle cx="113" cy="359" r="5" fill="#0B1F4D" stroke="none" stroke-width="0"/><text x="135" y="371" font-family="Inter, 'Noto Sans SC', 'Microsoft YaHei', Arial, sans-serif" font-size="20" font-weight="600" fill="#0B1F4D" text-anchor="start">Spearman with ties</text><text x="135" y="399" font-family="Inter, 'Noto Sans SC', 'Microsoft YaHei', Arial, sans-serif" font-size="18" font-weight="500" fill="#465A73" text-anchor="start">并列秩斯皮尔曼</text><line x1="52" y1="417" x2="348" y2="417" stroke="#D7E2F0" stroke-width="1"/><line x1="53" y1="483" x2="53" y2="423" stroke="#0B1F4D" stroke-width="3"/><line x1="53" y1="483" x2="120" y2="483" stroke="#0B1F4D" stroke-width="3"/><polyline points="63,471 78,456 93,461 113,433" fill="none" stroke="#0B1F4D" stroke-width="4"/><circle cx="63" cy="471" r="5" fill="#0B1F4D" stroke="none" stroke-width="0"/><circle cx="78" cy="456" r="5" fill="#0B1F4D" stroke="none" stroke-width="0"/><circle cx="93" cy="461" r="5" fill="#0B1F4D" stroke="none" stroke-width="0"/><circle cx="113" cy="433" r="5" fill="#0B1F4D" stroke="none" stroke-width="0"/><text x="135" y="445" font-family="Inter, 'Noto Sans SC', 'Microsoft YaHei', Arial, sans-serif" font-size="20" font-weight="600" fill="#0B1F4D" text-anchor="start">Linear regression</text><text x="135" y="473" font-family="Inter, 'Noto Sans SC', 'Microsoft YaHei', Arial, sans-serif" font-size="18" font-weight="500" fill="#465A73" text-anchor="start">中心化线性回归</text><line x1="52" y1="491" x2="348" y2="491" stroke="#D7E2F0" stroke-width="1"/><line x1="53" y1="557" x2="53" y2="497" stroke="#0B1F4D" stroke-width="3"/><line x1="53" y1="557" x2="120" y2="557" stroke="#0B1F4D" stroke-width="3"/><polyline points="63,545 78,530 93,535 113,507" fill="none" stroke="#0B1F4D" stroke-width="4"/><circle cx="63" cy="545" r="5" fill="#0B1F4D" stroke="none" stroke-width="0"/><circle cx="78" cy="530" r="5" fill="#0B1F4D" stroke="none" stroke-width="0"/><circle cx="93" cy="535" r="5" fill="#0B1F4D" stroke="none" stroke-width="0"/><circle cx="113" cy="507" r="5" fill="#0B1F4D" stroke="none" stroke-width="0"/><text x="135" y="519" font-family="Inter, 'Noto Sans SC', 'Microsoft YaHei', Arial, sans-serif" font-size="20" font-weight="600" fill="#0B1F4D" text-anchor="start">Quantiles and KDE</text><text x="135" y="547" font-family="Inter, 'Noto Sans SC', 'Microsoft YaHei', Arial, sans-serif" font-size="18" font-weight="500" fill="#465A73" text-anchor="start">分位数与核密度</text><path d="M376,422 H392 V410 L410,430 L392,450 V438 H376 Z" fill="#0B1F4D"/><rect x="415" y="165" width="365" height="525" rx="24" fill="#FFFFFF" stroke="#0B8A8F" stroke-width="3"/><path d="M439,165 H756 Q780,165 780,189 V253 H415 V189 Q415,165 439,165 Z" fill="#0B8A8F"/><circle cx="463" cy="209" r="25" fill="#FFFFFF" stroke="none" stroke-width="0"/><text x="463" y="218" font-family="Inter, 'Noto Sans SC', 'Microsoft YaHei', Arial, sans-serif" font-size="24" font-weight="800" fill="#0B8A8F" text-anchor="middle">2</text><text x="505" y="201" font-family="Inter, 'Noto Sans SC', 'Microsoft YaHei', Arial, sans-serif" font-size="22" font-weight="700" fill="#FFFFFF" text-anchor="start">Mathematical Contracts</text><text x="505" y="231" font-family="Inter, 'Noto Sans SC', 'Microsoft YaHei', Arial, sans-serif" font-size="20" font-weight="700" fill="#FFFFFF" text-anchor="start">数理合同</text><rect x="445" y="265" width="305" height="74" rx="14" fill="#EEF4FA" stroke="#0B8A8F" stroke-width="1"/><circle cx="475" cy="302" r="19" fill="#0B8A8F" stroke="none" stroke-width="0"/><text x="475" y="309" font-family="Inter, 'Noto Sans SC', 'Microsoft YaHei', Arial, sans-serif" font-size="17" font-weight="800" fill="#FFFFFF" text-anchor="middle">1</text><text x="600" y="310" font-family="Inter, 'Noto Sans SC', 'Microsoft YaHei', Arial, sans-serif" font-size="19" font-weight="650" fill="#0B1F4D" text-anchor="middle">t = r√((n−2)/(1−r²)), ν=n−2</text><rect x="445" y="360" width="305" height="74" rx="14" fill="#EEF4FA" stroke="#0B8A8F" stroke-width="1"/><circle cx="475" cy="397" r="19" fill="#0B8A8F" stroke="none" stroke-width="0"/><text x="475" y="404" font-family="Inter, 'Noto Sans SC', 'Microsoft YaHei', Arial, sans-serif" font-size="17" font-weight="800" fill="#FFFFFF" text-anchor="middle">2</text><text x="600" y="405" font-family="Inter, 'Noto Sans SC', 'Microsoft YaHei', Arial, sans-serif" font-size="19" font-weight="650" fill="#0B1F4D" text-anchor="middle">β̂₁ = Sxy / Sxx</text><rect x="445" y="455" width="305" height="74" rx="14" fill="#EEF4FA" stroke="#0B8A8F" stroke-width="1"/><circle cx="475" cy="492" r="19" fill="#0B8A8F" stroke="none" stroke-width="0"/><text x="475" y="499" font-family="Inter, 'Noto Sans SC', 'Microsoft YaHei', Arial, sans-serif" font-size="17" font-weight="800" fill="#FFFFFF" text-anchor="middle">3</text><text x="600" y="500" font-family="Inter, 'Noto Sans SC', 'Microsoft YaHei', Arial, sans-serif" font-size="19" font-weight="650" fill="#0B1F4D" text-anchor="middle">ρs = corr(Rx, Ry)</text><rect x="445" y="550" width="305" height="74" rx="14" fill="#EEF4FA" stroke="#0B8A8F" stroke-width="1"/><circle cx="475" cy="587" r="19" fill="#0B8A8F" stroke="none" stroke-width="0"/><text x="475" y="594" font-family="Inter, 'Noto Sans SC', 'Microsoft YaHei', Arial, sans-serif" font-size="17" font-weight="800" fill="#FFFFFF" text-anchor="middle">4</text><text x="600" y="595" font-family="Inter, 'Noto Sans SC', 'Microsoft YaHei', Arial, sans-serif" font-size="19" font-weight="650" fill="#0B1F4D" text-anchor="middle">CI95 = β̂₁ ± t0.975,ν · SE(β̂₁)</text><path d="M785,422 H801 V410 L819,430 L801,450 V438 H785 Z" fill="#0B1F4D"/><rect x="825" y="165" width="355" height="525" rx="24" fill="#FFFFFF" stroke="#1457C5" stroke-width="3"/><path d="M849,165 H1156 Q1180,165 1180,189 V253 H825 V189 Q825,165 849,165 Z" fill="#1457C5"/><circle cx="873" cy="209" r="25" fill="#FFFFFF" stroke="none" stroke-width="0"/><text x="873" y="218" font-family="Inter, 'Noto Sans SC', 'Microsoft YaHei', Arial, sans-serif" font-size="24" font-weight="800" fill="#1457C5" text-anchor="middle">3</text><text x="913" y="202" font-family="Inter, 'Noto Sans SC', 'Microsoft YaHei', Arial, sans-serif" font-size="22" font-weight="700" fill="#FFFFFF" text-anchor="start">稳健性改进</text><text x="913" y="232" font-family="Inter, 'Noto Sans SC', 'Microsoft YaHei', Arial, sans-serif" font-size="20" font-weight="700" fill="#FFFFFF" text-anchor="start">Robustness Improvements</text><line x1="848" y1="335" x2="848" y2="275" stroke="#1457C5" stroke-width="3"/><line x1="848" y1="335" x2="915" y2="335" stroke="#1457C5" stroke-width="3"/><polyline points="858,323 873,308 888,313 908,285" fill="none" stroke="#1457C5" stroke-width="4"/><circle cx="858" cy="323" r="5" fill="#1457C5" stroke="none" stroke-width="0"/><circle cx="873" cy="308" r="5" fill="#1457C5" stroke="none" stroke-width="0"/><circle cx="888" cy="313" r="5" fill="#1457C5" stroke="none" stroke-width="0"/><circle cx="908" cy="285" r="5" fill="#1457C5" stroke="none" stroke-width="0"/><text x="930" y="297" font-family="Inter, 'Noto Sans SC', 'Microsoft YaHei', Arial, sans-serif" font-size="20" font-weight="600" fill="#0B1F4D" text-anchor="start">Average ranks for ties</text><text x="930" y="325" font-family="Inter, 'Noto Sans SC', 'Microsoft YaHei', Arial, sans-serif" font-size="18" font-weight="500" fill="#465A73" text-anchor="start">并列值平均秩</text><line x1="847" y1="343" x2="1158" y2="343" stroke="#D7E2F0" stroke-width="1"/><line x1="848" y1="409" x2="848" y2="349" stroke="#1457C5" stroke-width="3"/><line x1="848" y1="409" x2="915" y2="409" stroke="#1457C5" stroke-width="3"/><polyline points="858,397 873,382 888,387 908,359" fill="none" stroke="#1457C5" stroke-width="4"/><circle cx="858" cy="397" r="5" fill="#1457C5" stroke="none" stroke-width="0"/><circle cx="873" cy="382" r="5" fill="#1457C5" stroke="none" stroke-width="0"/><circle cx="888" cy="387" r="5" fill="#1457C5" stroke="none" stroke-width="0"/><circle cx="908" cy="359" r="5" fill="#1457C5" stroke="none" stroke-width="0"/><text x="930" y="371" font-family="Inter, 'Noto Sans SC', 'Microsoft YaHei', Arial, sans-serif" font-size="20" font-weight="600" fill="#0B1F4D" text-anchor="start">Interpolated quartiles</text><text x="930" y="399" font-family="Inter, 'Noto Sans SC', 'Microsoft YaHei', Arial, sans-serif" font-size="18" font-weight="500" fill="#465A73" text-anchor="start">分位数线性插值</text><line x1="847" y1="417" x2="1158" y2="417" stroke="#D7E2F0" stroke-width="1"/><line x1="848" y1="483" x2="848" y2="423" stroke="#1457C5" stroke-width="3"/><line x1="848" y1="483" x2="915" y2="483" stroke="#1457C5" stroke-width="3"/><polyline points="858,471 873,456 888,461 908,433" fill="none" stroke="#1457C5" stroke-width="4"/><circle cx="858" cy="471" r="5" fill="#1457C5" stroke="none" stroke-width="0"/><circle cx="873" cy="456" r="5" fill="#1457C5" stroke="none" stroke-width="0"/><circle cx="888" cy="461" r="5" fill="#1457C5" stroke="none" stroke-width="0"/><circle cx="908" cy="433" r="5" fill="#1457C5" stroke="none" stroke-width="0"/><text x="930" y="445" font-family="Inter, 'Noto Sans SC', 'Microsoft YaHei', Arial, sans-serif" font-size="20" font-weight="600" fill="#0B1F4D" text-anchor="start">Adjusted skew/kurtosis</text><text x="930" y="473" font-family="Inter, 'Noto Sans SC', 'Microsoft YaHei', Arial, sans-serif" font-size="18" font-weight="500" fill="#465A73" text-anchor="start">调整偏度与峰度</text><line x1="847" y1="491" x2="1158" y2="491" stroke="#D7E2F0" stroke-width="1"/><line x1="848" y1="557" x2="848" y2="497" stroke="#1457C5" stroke-width="3"/><line x1="848" y1="557" x2="915" y2="557" stroke="#1457C5" stroke-width="3"/><polyline points="858,545 873,530 888,535 908,507" fill="none" stroke="#1457C5" stroke-width="4"/><circle cx="858" cy="545" r="5" fill="#1457C5" stroke="none" stroke-width="0"/><circle cx="873" cy="530" r="5" fill="#1457C5" stroke="none" stroke-width="0"/><circle cx="888" cy="535" r="5" fill="#1457C5" stroke="none" stroke-width="0"/><circle cx="908" cy="507" r="5" fill="#1457C5" stroke="none" stroke-width="0"/><text x="930" y="519" font-family="Inter, 'Noto Sans SC', 'Microsoft YaHei', Arial, sans-serif" font-size="20" font-weight="600" fill="#0B1F4D" text-anchor="start">One-pass finite bounds</text><text x="930" y="547" font-family="Inter, 'Noto Sans SC', 'Microsoft YaHei', Arial, sans-serif" font-size="18" font-weight="500" fill="#465A73" text-anchor="start">有限值单遍扫描</text><path d="M1185,422 H1200 V410 L1218,430 L1200,450 V438 H1185 Z" fill="#0B1F4D"/><rect x="1225" y="165" width="345" height="525" rx="24" fill="#FFFFFF" stroke="#465A73" stroke-width="3"/><path d="M1249,165 H1546 Q1570,165 1570,189 V253 H1225 V189 Q1225,165 1249,165 Z" fill="#465A73"/><circle cx="1273" cy="209" r="25" fill="#FFFFFF" stroke="none" stroke-width="0"/><text x="1273" y="218" font-family="Inter, 'Noto Sans SC', 'Microsoft YaHei', Arial, sans-serif" font-size="24" font-weight="800" fill="#465A73" text-anchor="middle">4</text><text x="1315" y="201" font-family="Inter, 'Noto Sans SC', 'Microsoft YaHei', Arial, sans-serif" font-size="22" font-weight="700" fill="#FFFFFF" text-anchor="start">Measured Impact</text><text x="1315" y="231" font-family="Inter, 'Noto Sans SC', 'Microsoft YaHei', Arial, sans-serif" font-size="20" font-weight="700" fill="#FFFFFF" text-anchor="start">固定夹具实测</text><line x1="1243" y1="350" x2="1243" y2="290" stroke="#1457C5" stroke-width="3"/><line x1="1243" y1="350" x2="1310" y2="350" stroke="#1457C5" stroke-width="3"/><polyline points="1253,338 1268,323 1283,328 1303,300" fill="none" stroke="#1457C5" stroke-width="4"/><circle cx="1253" cy="338" r="5" fill="#1457C5" stroke="none" stroke-width="0"/><circle cx="1268" cy="323" r="5" fill="#1457C5" stroke="none" stroke-width="0"/><circle cx="1283" cy="328" r="5" fill="#1457C5" stroke="none" stroke-width="0"/><circle cx="1303" cy="300" r="5" fill="#1457C5" stroke="none" stroke-width="0"/><text x="1330" y="315" font-family="Inter, 'Noto Sans SC', 'Microsoft YaHei', Arial, sans-serif" font-size="19" font-weight="600" fill="#0B1F4D" text-anchor="start">Pearson p-value vs SciPy</text><text x="1330" y="351" font-family="Inter, 'Noto Sans SC', 'Microsoft YaHei', Arial, sans-serif" font-size="27" font-weight="800" fill="#0B8A8F" text-anchor="start">2.21 × 10⁻¹⁴</text><line x1="1243" y1="480" x2="1243" y2="420" stroke="#1457C5" stroke-width="3"/><line x1="1243" y1="480" x2="1310" y2="480" stroke="#1457C5" stroke-width="3"/><polyline points="1253,468 1268,453 1283,458 1303,430" fill="none" stroke="#1457C5" stroke-width="4"/><circle cx="1253" cy="468" r="5" fill="#1457C5" stroke="none" stroke-width="0"/><circle cx="1268" cy="453" r="5" fill="#1457C5" stroke="none" stroke-width="0"/><circle cx="1283" cy="458" r="5" fill="#1457C5" stroke="none" stroke-width="0"/><circle cx="1303" cy="430" r="5" fill="#1457C5" stroke="none" stroke-width="0"/><text x="1330" y="445" font-family="Inter, 'Noto Sans SC', 'Microsoft YaHei', Arial, sans-serif" font-size="19" font-weight="600" fill="#0B1F4D" text-anchor="start">Radar query path</text><text x="1330" y="481" font-family="Inter, 'Noto Sans SC', 'Microsoft YaHei', Arial, sans-serif" font-size="27" font-weight="800" fill="#0B8A8F" text-anchor="start">1101.91 → 32.52 ms</text><line x1="1243" y1="610" x2="1243" y2="550" stroke="#1457C5" stroke-width="3"/><line x1="1243" y1="610" x2="1310" y2="610" stroke="#1457C5" stroke-width="3"/><polyline points="1253,598 1268,583 1283,588 1303,560" fill="none" stroke="#1457C5" stroke-width="4"/><circle cx="1253" cy="598" r="5" fill="#1457C5" stroke="none" stroke-width="0"/><circle cx="1268" cy="583" r="5" fill="#1457C5" stroke="none" stroke-width="0"/><circle cx="1283" cy="588" r="5" fill="#1457C5" stroke="none" stroke-width="0"/><circle cx="1303" cy="560" r="5" fill="#1457C5" stroke="none" stroke-width="0"/><text x="1330" y="575" font-family="Inter, 'Noto Sans SC', 'Microsoft YaHei', Arial, sans-serif" font-size="19" font-weight="600" fill="#0B1F4D" text-anchor="start">1,000,000-value bounds</text><text x="1330" y="611" font-family="Inter, 'Noto Sans SC', 'Microsoft YaHei', Arial, sans-serif" font-size="27" font-weight="800" fill="#0B8A8F" text-anchor="start">≈ 8.38 ms</text><rect x="45" y="735" width="1510" height="110" rx="20" fill="#FFFFFF" stroke="#D64545" stroke-width="2"/><text x="90" y="782" font-family="Inter, 'Noto Sans SC', 'Microsoft YaHei', Arial, sans-serif" font-size="36" font-weight="800" fill="#D64545" text-anchor="start">⚠</text><text x="140" y="778" font-family="Inter, 'Noto Sans SC', 'Microsoft YaHei', Arial, sans-serif" font-size="25" font-weight="800" fill="#0B1F4D" text-anchor="start">Old failure modes / 旧问题</text><rect x="140" y="798" width="265" height="34" rx="10" fill="#EEF4FA" stroke="#D7E2F0" stroke-width="1"/><text x="272" y="821" font-family="Inter, 'Noto Sans SC', 'Microsoft YaHei', Arial, sans-serif" font-size="15" font-weight="600" fill="#465A73" text-anchor="middle">Normal approximation misuse / 正态近似误用</text><rect x="425" y="798" width="265" height="34" rx="10" fill="#EEF4FA" stroke="#D7E2F0" stroke-width="1"/><text x="557" y="821" font-family="Inter, 'Noto Sans SC', 'Microsoft YaHei', Arial, sans-serif" font-size="15" font-weight="600" fill="#465A73" text-anchor="middle">Fixed t=2.0 / 固定临界值</text><rect x="710" y="798" width="265" height="34" rx="10" fill="#EEF4FA" stroke="#D7E2F0" stroke-width="1"/><text x="842" y="821" font-family="Inter, 'Noto Sans SC', 'Microsoft YaHei', Arial, sans-serif" font-size="15" font-weight="600" fill="#465A73" text-anchor="middle">Unstable raw sums / 原始和消减</text><rect x="995" y="798" width="265" height="34" rx="10" fill="#EEF4FA" stroke="#D7E2F0" stroke-width="1"/><text x="1127" y="821" font-family="Inter, 'Noto Sans SC', 'Microsoft YaHei', Arial, sans-serif" font-size="15" font-weight="600" fill="#465A73" text-anchor="middle">Repeated sorting / 重复排序</text><rect x="1280" y="798" width="265" height="34" rx="10" fill="#EEF4FA" stroke="#D7E2F0" stroke-width="1"/><text x="1412" y="821" font-family="Inter, 'Noto Sans SC', 'Microsoft YaHei', Arial, sans-serif" font-size="15" font-weight="600" fill="#465A73" text-anchor="middle">RangeError from spread / 展开参数溢出</text>
</svg>