<svg xmlns="http://www.w3.org/2000/svg" width="1200" height="640"
 viewBox="0 0 1200 640" role="img"
 aria-labelledby="research-title research-title-desc"
 data-design-system="resindb-uiux-pro-max-v1" shape-rendering="geometricPrecision">
<title id="research-title">From material question to evidence package</title>
<desc id="research-title-desc">Question definition and curation precede computation, comparison, reporting and professional review.</desc>
<metadata>ResinDB UI UX Pro Max design system: Swiss modernism, Bento structure, WCAG-aware semantic colors, vector-only icons, 8-point spacing.</metadata>

<defs>
  <filter id="shadow-sm" x="-15%" y="-20%" width="130%" height="150%">
    <feDropShadow dx="0" dy="6" stdDeviation="7" flood-color="#0F172A" flood-opacity=".08"/>
  </filter>
  <pattern id="dot-grid" width="24" height="24" patternUnits="userSpaceOnUse">
    <circle cx="1" cy="1" r="1" fill="#CBD5E1" fill-opacity=".38"/>
  </pattern>
  <marker id="arrow" markerWidth="9" markerHeight="9" refX="8" refY="4.5" orient="auto">
    <path d="M0 0L9 4.5L0 9Z" fill="#2563EB"/>
  </marker>
  <marker id="arrow-muted" markerWidth="9" markerHeight="9" refX="8" refY="4.5" orient="auto">
    <path d="M0 0L9 4.5L0 9Z" fill="#64748B"/>
  </marker>
</defs>

<rect width="1200" height="640" rx="24" fill="#F8FAFC"/>
<rect x="0" y="142" width="1200" height="498" fill="url(#dot-grid)"/>
<rect x="0" y="0" width="1200" height="142" fill="#0F172A"/><text x="64" y="38" fill="#93C5FD" font-family="Inter,Segoe UI,Arial,sans-serif" font-size="12" font-weight="750" text-anchor="start" letter-spacing="1.6">RESINDB PRO</text><text x="64" y="82" fill="#FFFFFF" font-family="Inter,Segoe UI,Arial,sans-serif" font-size="32" font-weight="760" text-anchor="start">From material question to evidence package</text><text x="64" y="112" fill="#CBD5E1" font-family="Inter,Segoe UI,Arial,sans-serif" font-size="15" font-weight="450" text-anchor="start">A repeatable workflow for exploratory polymer research</text><text x="1136" y="38" fill="#94A3B8" font-family="JetBrains Mono,SFMono-Regular,Consolas,monospace" font-size="11" font-weight="650" text-anchor="end" letter-spacing="1.0">WORKFLOW / RESEARCH EVIDENCE</text><rect x="64" y="132" width="90" height="4" rx="2" fill="#2563EB"/><g filter="url(#shadow-sm)"><rect x="64.0" y="222" width="160.33333333333334" height="178" rx="18" fill="#FFFFFF" stroke="#E2E8F0"/><rect x="64.0" y="222" width="6" height="178" rx="3" fill="#2563EB"/></g><rect x="88.0" y="244" width="46" height="46" rx="14" fill="#2563EB" fill-opacity=".10" stroke="#2563EB" stroke-opacity=".28"/><g fill="none" stroke="#2563EB" stroke-width="2" stroke-linecap="round" stroke-linejoin="round"><path d="M101.0 252.0h13l8 8v22h-21z"/><path d="M114.0 252.0v8h8M106.0 268.0h11M106.0 274.0h8"/></g><text x="148.0" y="265" fill="#0F172A" font-family="Inter,Segoe UI,Arial,sans-serif" font-size="17" font-weight="720" text-anchor="start">Define</text><text x="148.0" y="288" fill="#64748B" font-family="Inter,Segoe UI,Arial,sans-serif" font-size="12" font-weight="500" text-anchor="start">question • criteria</text><rect x="172.33333333333334" y="240" width="32" height="24" rx="12" fill="#F1F5F9"/><text x="188.33333333333334" y="257" fill="#64748B" font-family="JetBrains Mono,SFMono-Regular,Consolas,monospace" font-size="11" font-weight="700" text-anchor="middle">01</text><path d="M228.33333333333334 311L241.33333333333334 311" fill="none" stroke="#2563EB" stroke-width="2" stroke-linecap="round" marker-end="url(#arrow)"/><g filter="url(#shadow-sm)"><rect x="246.33333333333334" y="222" width="160.33333333333334" height="178" rx="18" fill="#FFFFFF" stroke="#E2E8F0"/><rect x="246.33333333333334" y="222" width="6" height="178" rx="3" fill="#0F766E"/></g><rect x="270.33333333333337" y="244" width="46" height="46" rx="14" fill="#0F766E" fill-opacity=".10" stroke="#0F766E" stroke-opacity=".28"/><g fill="none" stroke="#0F766E" stroke-width="2" stroke-linecap="round" stroke-linejoin="round"><ellipse cx="293.33333333333337" cy="258.0" rx="12" ry="5"/><path d="M281.33333333333337 258.0v18c0 3 5 5 12 5s12-2 12-5v-18"/><path d="M281.33333333333337 267.0c0 3 5 5 12 5s12-2 12-5"/></g><text x="330.33333333333337" y="265" fill="#0F172A" font-family="Inter,Segoe UI,Arial,sans-serif" font-size="17" font-weight="720" text-anchor="start">Curate</text><text x="330.33333333333337" y="288" fill="#64748B" font-family="Inter,Segoe UI,Arial,sans-serif" font-size="12" font-weight="500" text-anchor="start">select • validate</text><rect x="354.6666666666667" y="240" width="32" height="24" rx="12" fill="#F1F5F9"/><text x="370.6666666666667" y="257" fill="#64748B" font-family="JetBrains Mono,SFMono-Regular,Consolas,monospace" font-size="11" font-weight="700" text-anchor="middle">02</text><path d="M410.6666666666667 311L423.6666666666667 311" fill="none" stroke="#2563EB" stroke-width="2" stroke-linecap="round" marker-end="url(#arrow)"/><g filter="url(#shadow-sm)"><rect x="428.6666666666667" y="222" width="160.33333333333334" height="178" rx="18" fill="#FFFFFF" stroke="#E2E8F0"/><rect x="428.6666666666667" y="222" width="6" height="178" rx="3" fill="#6D28D9"/></g><rect x="452.6666666666667" y="244" width="46" height="46" rx="14" fill="#6D28D9" fill-opacity=".10" stroke="#6D28D9" stroke-opacity=".28"/><g fill="none" stroke="#6D28D9" stroke-width="2" stroke-linecap="round" stroke-linejoin="round"><ellipse cx="475.6666666666667" cy="267.0" rx="16" ry="6"/><ellipse cx="475.6666666666667" cy="267.0" rx="16" ry="6" transform="rotate(60 475.6666666666667 267.0)"/><ellipse cx="475.6666666666667" cy="267.0" rx="16" ry="6" transform="rotate(120 475.6666666666667 267.0)"/><circle cx="475.6666666666667" cy="267.0" r="3" fill="#6D28D9" stroke="none"/></g><text x="512.6666666666667" y="265" fill="#0F172A" font-family="Inter,Segoe UI,Arial,sans-serif" font-size="17" font-weight="720" text-anchor="start">Analyze</text><text x="512.6666666666667" y="288" fill="#64748B" font-family="Inter,Segoe UI,Arial,sans-serif" font-size="12" font-weight="500" text-anchor="start">models • uncertainty</text><rect x="537.0" y="240" width="32" height="24" rx="12" fill="#F1F5F9"/><text x="553.0" y="257" fill="#64748B" font-family="JetBrains Mono,SFMono-Regular,Consolas,monospace" font-size="11" font-weight="700" text-anchor="middle">03</text><path d="M593.0 311L606.0 311" fill="none" stroke="#2563EB" stroke-width="2" stroke-linecap="round" marker-end="url(#arrow)"/><g filter="url(#shadow-sm)"><rect x="611.0" y="222" width="160.33333333333334" height="178" rx="18" fill="#FFFFFF" stroke="#E2E8F0"/><rect x="611.0" y="222" width="6" height="178" rx="3" fill="#B45309"/></g><rect x="635.0" y="244" width="46" height="46" rx="14" fill="#B45309" fill-opacity=".10" stroke="#B45309" stroke-opacity=".28"/><g fill="none" stroke="#B45309" stroke-width="2" stroke-linecap="round" stroke-linejoin="round"><path d="M658.0 253.0v28M645.0 258.0h26"/><path d="M645.0 258.0l-7 13h14zM671.0 258.0l-7 13h14z"/></g><text x="695.0" y="265" fill="#0F172A" font-family="Inter,Segoe UI,Arial,sans-serif" font-size="17" font-weight="720" text-anchor="start">Compare</text><text x="695.0" y="288" fill="#64748B" font-family="Inter,Segoe UI,Arial,sans-serif" font-size="12" font-weight="500" text-anchor="start">charts • rankings</text><rect x="719.3333333333334" y="240" width="32" height="24" rx="12" fill="#F1F5F9"/><text x="735.3333333333334" y="257" fill="#64748B" font-family="JetBrains Mono,SFMono-Regular,Consolas,monospace" font-size="11" font-weight="700" text-anchor="middle">04</text><path d="M775.3333333333334 311L788.3333333333334 311" fill="none" stroke="#2563EB" stroke-width="2" stroke-linecap="round" marker-end="url(#arrow)"/><g filter="url(#shadow-sm)"><rect x="793.3333333333334" y="222" width="160.33333333333334" height="178" rx="18" fill="#FFFFFF" stroke="#E2E8F0"/><rect x="793.3333333333334" y="222" width="6" height="178" rx="3" fill="#BE123C"/></g><rect x="817.3333333333334" y="244" width="46" height="46" rx="14" fill="#BE123C" fill-opacity=".10" stroke="#BE123C" stroke-opacity=".28"/><g fill="none" stroke="#BE123C" stroke-width="2" stroke-linecap="round" stroke-linejoin="round"><path d="M830.3333333333334 252.0h13l8 8v22h-21z"/><path d="M843.3333333333334 252.0v8h8M835.3333333333334 268.0h11M835.3333333333334 274.0h8"/></g><text x="877.3333333333334" y="265" fill="#0F172A" font-family="Inter,Segoe UI,Arial,sans-serif" font-size="17" font-weight="720" text-anchor="start">Report</text><text x="877.3333333333334" y="288" fill="#64748B" font-family="Inter,Segoe UI,Arial,sans-serif" font-size="12" font-weight="500" text-anchor="start">portable package</text><rect x="901.6666666666667" y="240" width="32" height="24" rx="12" fill="#F1F5F9"/><text x="917.6666666666667" y="257" fill="#64748B" font-family="JetBrains Mono,SFMono-Regular,Consolas,monospace" font-size="11" font-weight="700" text-anchor="middle">05</text><path d="M957.6666666666667 311L970.6666666666667 311" fill="none" stroke="#2563EB" stroke-width="2" stroke-linecap="round" marker-end="url(#arrow)"/><g filter="url(#shadow-sm)"><rect x="975.6666666666667" y="222" width="160.33333333333334" height="178" rx="18" fill="#FFFFFF" stroke="#E2E8F0"/><rect x="975.6666666666667" y="222" width="6" height="178" rx="3" fill="#0E7490"/></g><rect x="999.6666666666667" y="244" width="46" height="46" rx="14" fill="#0E7490" fill-opacity=".10" stroke="#0E7490" stroke-opacity=".28"/><g fill="none" stroke="#0E7490" stroke-width="2" stroke-linecap="round" stroke-linejoin="round"><circle cx="1022.6666666666667" cy="267.0" r="15"/><path d="M1014.6666666666667 267.0l6 6 11-13"/></g><text x="1059.6666666666667" y="265" fill="#0F172A" font-family="Inter,Segoe UI,Arial,sans-serif" font-size="17" font-weight="720" text-anchor="start">Review</text><text x="1059.6666666666667" y="288" fill="#64748B" font-family="Inter,Segoe UI,Arial,sans-serif" font-size="12" font-weight="500" text-anchor="start">professional sign-off</text><rect x="1084.0" y="240" width="32" height="24" rx="12" fill="#F1F5F9"/><text x="1100.0" y="257" fill="#64748B" font-family="JetBrains Mono,SFMono-Regular,Consolas,monospace" font-size="11" font-weight="700" text-anchor="middle">06</text><rect x="64" y="442" width="1072" height="92" rx="18" fill="#F1F5F9" stroke="#E2E8F0"/><text x="88" y="473" fill="#2563EB" font-family="JetBrains Mono,SFMono-Regular,Consolas,monospace" font-size="11" font-weight="750" text-anchor="start" letter-spacing="1.0">DESIGN INTENT</text><text x="88" y="503" fill="#334155" font-family="Inter,Segoe UI,Arial,sans-serif" font-size="14" font-weight="500" text-anchor="start">Question definition and curation precede computation, comparison, reporting and professional review.</text><rect x="64" y="580" width="150" height="32" rx="16" fill="#FFFFFF" stroke="#CBD5E1"/><circle cx="80" cy="596" r="4" fill="#2563EB"/><text x="92" y="601" fill="#334155" font-family="Inter,Segoe UI,Arial,sans-serif" font-size="12" font-weight="600" text-anchor="start">Traceable inputs</text><rect x="226" y="580" width="181.29999999999998" height="32" rx="16" fill="#FFFFFF" stroke="#CBD5E1"/><circle cx="242" cy="596" r="4" fill="#0F766E"/><text x="254" y="601" fill="#334155" font-family="Inter,Segoe UI,Arial,sans-serif" font-size="12" font-weight="600" text-anchor="start">Reproducible settings</text><rect x="419.29999999999995" y="580" width="150" height="32" rx="16" fill="#FFFFFF" stroke="#CBD5E1"/><circle cx="435.29999999999995" cy="596" r="4" fill="#6D28D9"/><text x="447.29999999999995" y="601" fill="#334155" font-family="Inter,Segoe UI,Arial,sans-serif" font-size="12" font-weight="600" text-anchor="start">Human approval</text>
</svg>
